<svg height="512" viewBox="0 0 512 512" width="512" xmlns="http://www.w3.org/2000/svg"><g id="flat"><path d="m304 487.911-.237.089h-96-.008a98.269 98.269 0 0 1 -63.337-91.507l-.418-120.141a98.267 98.267 0 0 1 63.763-92.352h96l.237.089a98.267 98.267 0 0 1 63.763 92.01v119.801a98.267 98.267 0 0 1 -63.763 92.011z" fill="#fbb540"/><path d="m348.99 314.47 18.77 10.83v-18.48l-10.81-6.24v-26.43l10.49-6.05a98.156 98.156 0 0 0 -2.87-16.83l-15.47 8.93-22.98-13.27v-26.54l16.74-9.67a96.82 96.82 0 0 0 -12.13-11.47l-12.63 7.29-22.97-13.26-.07-9.28h-16l.07 9.25-23.02 13.29-23.15-13.37-.07-9.17h-16l.07 9.36-22.83 13.18-12.97-7.49a99.112 99.112 0 0 0 -12.15 11.46l17.11 9.88v26.51l-23.01 13.28-15.88-9.16a97.675 97.675 0 0 0 -2.89 16.8l10.67 6.16v26.63l-10.9 6.29.06 18.44 18.82-10.86 23.01 13.29v26.5l-22.98 13.27-18.74-10.82.07 18.51 10.68 6.17v26.65l-9.07 5.44a96.253 96.253 0 0 0 4.32 16.08l12.83-7.71 23.03 13.3v24.85l-11.59 6.95a98.173 98.173 0 0 0 13.25 10.71h.01l4.67-2.81 22.62 13.14h20.06l20.96-12.18 20.96 12.18h20.06l22.5-13.07 4.46 2.68a97.511 97.511 0 0 0 13.3-10.68l-11.31-6.78v-25.13l22.8-13.16 12.91 7.75a97.863 97.863 0 0 0 4.36-16.04l-9.19-5.52v-26.65l10.79-6.23v-18.47l-18.78 10.84-22.98-13.27v-26.53zm-84.87-94.08 22.98-13.27 22.99 13.27v26.51l-23.01 13.28-22.96-13.25zm45.85 107.38v26.5l-22.99 13.27-22.98-13.27v-26.52l22.97-13.26zm-31.01-53.67v26.52l-22.97 13.26-23-13.28v-26.47l23.01-13.29zm-30.98 53.67v26.5l-22.98 13.27-22.98-13.27v-26.52l22.97-13.26zm-45.84-107.38 22.98-13.27 22.98 13.27v26.51l-23.01 13.28-22.95-13.25zm-31.13 80.21v-26.47l23.01-13.29 22.96 13.26v26.52l-22.97 13.26zm.02 107.36v-26.54l22.99-13.27 22.98 13.27v26.54l-22.98 13.27zm77.08 54.01-22.98 13.35-22.27-12.93a7.763 7.763 0 0 0 -.72-2.04v-25.17l22.94-13.33 13.77 7.95 9.26 5.38zm7.89-40.74-9.14-5.28-13.84-8.04v-26.49l22.98-13.27 22.98 13.27v26.54zm54.09 38.68a8.243 8.243 0 0 0 -.98 2.63l-22 12.78-22.98-13.35v-26.79l22.94-13.33 13.86 8.01 9.16 5.32zm30.88-78.49v26.54l-22.99 13.27-9.04-5.23-13.94-8.09v-26.49l22.98-13.27zm-22.99-67.54-23-13.28v-26.47l23.01-13.29 22.96 13.26v26.53z" fill="#d18d28"/><path d="m224 24a116.99 116.99 0 0 1 51.837 89.561l4.163 62.439h-48l6.188-80.444a116.99 116.99 0 0 0 -5.659-45.969z" fill="#026a23"/><path d="m248 184v-28.528a136.169 136.169 0 0 1 64-115.472l-10.761 37.663a136.159 136.159 0 0 0 -5.239 37.408v68.929z" fill="#027226"/><rect fill="#c72835" height="32" rx="16" width="272" x="120" y="264"/><circle cx="200" cy="304" fill="#2cbff4" r="40"/><circle cx="312" cy="312" fill="#2cbff4" r="40"/><path d="m280 184a93.27 93.27 0 0 0 -39.059-75.9l-72.941-52.1 23.448 51.585a184.673 184.673 0 0 1 16.552 76.415z" fill="#027e2a"/><path d="m304 184a105.2 105.2 0 0 1 26.575-69.9l37.425-42.1a272.341 272.341 0 0 0 -154.2 104.028l-5.8 7.972z" fill="#029532"/><g fill="#d18d28"><path d="m256 408a8 8 0 0 1 -8-8v-8a8 8 0 0 1 16 0v8a8 8 0 0 1 -8 8z"/><path d="m193 407a8 8 0 0 1 -8-8v-8a8 8 0 0 1 16 0v8a8 8 0 0 1 -8 8z"/><path d="m225 245a8 8 0 0 1 -8-8v-8a8 8 0 0 1 16 0v8a8 8 0 0 1 -8 8z"/><path d="m288 245a8 8 0 0 1 -8-8v-8a8 8 0 0 1 16 0v8a8 8 0 0 1 -8 8z"/><path d="m319 407a8 8 0 0 1 -8-8v-8a8 8 0 0 1 16 0v8a8 8 0 0 1 -8 8z"/><path d="m288 462a8 8 0 0 1 -8-8v-8a8 8 0 0 1 16 0v8a8 8 0 0 1 -8 8z"/><path d="m225 462a8 8 0 0 1 -8-8v-8a8 8 0 0 1 16 0v8a8 8 0 0 1 -8 8z"/></g><path d="m176 336a8 8 0 0 1 -5.657-13.657l48-48a8 8 0 1 1 11.314 11.314l-48 48a7.974 7.974 0 0 1 -5.657 2.343z" fill="#8feaff"/><path d="m288 336a8 8 0 0 1 -5.657-13.657l48-48a8 8 0 0 1 11.314 11.314l-48 48a7.974 7.974 0 0 1 -5.657 2.343z" fill="#8feaff"/><path d="m200 352a48 48 0 1 1 48-48 48.054 48.054 0 0 1 -48 48zm0-80a32 32 0 1 0 32 32 32.036 32.036 0 0 0 -32-32z" fill="#e82f3e"/><path d="m312 352a48 48 0 1 1 48-48 48.054 48.054 0 0 1 -48 48zm0-80a32 32 0 1 0 32 32 32.036 32.036 0 0 0 -32-32z" fill="#e82f3e"/></g></svg>